<svg width="119" height="30" viewBox="0 0 119 30" fill="none" xmlns="http://www.w3.org/2000/svg">
<path fill-rule="evenodd" clip-rule="evenodd" d="M0 4.43701V25.5628H13.195V21.2928H4.62667V4.43701H0Z" fill="#fff"/>
<path fill-rule="evenodd" clip-rule="evenodd" d="M17.4634 4.1235C18.8876 4.1235 20.0434 5.27934 20.0434 6.70434C20.0434 8.1285 18.8876 9.281 17.4634 9.281C16.0401 9.281 14.8842 8.1285 14.8842 6.70434C14.8842 5.27934 16.0401 4.1235 17.4634 4.1235ZM15.2392 25.5568H19.6867V11.2402H15.2392V25.5568Z" fill="#fff"/>
<path fill-rule="evenodd" clip-rule="evenodd" d="M38.2808 4.43683H42.7258V17.0618L47.7642 11.2335H53.2142L47.3817 17.8618L53.0925 25.5635H47.5042L42.7833 18.4852H42.7258V25.5635H38.2808V4.43683Z" fill="#fff"/>
<path fill-rule="evenodd" clip-rule="evenodd" d="M22.1472 11.2435H26.4164V13.1993H26.4764C27.0689 12.0735 28.5214 10.8868 30.6864 10.8868C35.1939 10.8868 36.0239 13.8527 36.0239 17.7068V25.5568H31.5756V18.596C31.5756 16.936 31.5456 14.8018 29.2622 14.8018C26.9497 14.8018 26.5947 16.6093 26.5947 18.4777V25.5568H22.1472V11.2435Z" fill="#fff"/>
<path fill-rule="evenodd" clip-rule="evenodd" d="M66.3428 23.0778C64.9169 24.8878 62.5761 25.9262 60.2636 25.9262C55.8161 25.9262 52.2578 22.9603 52.2578 18.3637C52.2578 13.7687 55.8161 10.8028 60.2636 10.8028C64.4169 10.8028 67.0228 13.7687 67.0228 18.3637V19.757H56.7053C57.0586 21.4478 58.3369 22.5445 60.0553 22.5445C61.5094 22.5445 62.4861 21.8045 63.2278 20.7962L66.3428 23.0778ZM62.5761 16.7353C62.6044 15.2512 61.4494 14.007 59.8461 14.007C57.8911 14.007 56.8244 15.3412 56.7053 16.7353H62.5761Z" fill="#fff"/>
<path fill-rule="evenodd" clip-rule="evenodd" d="M83.9421 25.555H79.8479V23.6558H79.7904C79.1046 24.695 77.3871 25.91 75.3713 25.91C71.0996 25.91 68.2829 22.8275 68.2829 18.4692C68.2829 14.4642 70.7746 10.7892 74.8663 10.7892C76.7063 10.7892 78.4246 11.2917 79.4338 12.685H79.4913V4.43668H83.9421V25.555ZM76.2888 14.7025C74.0663 14.7025 72.7304 16.1858 72.7304 18.3492C72.7304 20.515 74.0663 21.9967 76.2888 21.9967C78.5146 21.9967 79.8479 20.515 79.8479 18.3492C79.8479 16.1858 78.5146 14.7025 76.2888 14.7025Z" fill="#fff"/>
<path fill-rule="evenodd" clip-rule="evenodd" d="M116.169 0H90.6019C89.3819 0 88.3894 0.968333 88.3894 2.16333V27.835C88.3894 29.03 89.3819 30 90.6019 30H116.169C117.394 30 118.389 29.03 118.389 27.835V2.16333C118.389 0.968333 117.394 0 116.169 0ZM95.0627 4.1301C96.486 4.1301 97.6418 5.28593 97.6418 6.7101C97.6418 8.1351 96.486 9.29093 95.0627 9.29093C93.6335 9.29093 92.481 8.1351 92.481 6.7101C92.481 5.28593 93.6335 4.1301 95.0627 4.1301ZM92.8352 25.5634H97.2885V11.2468H92.8352V25.5634ZM104.345 11.2468H100.08V25.5634H104.524V18.4826C104.524 16.6143 104.877 14.8051 107.192 14.8051C109.476 14.8051 109.506 16.9409 109.506 18.6009V25.5634H113.953V17.7118C113.953 13.8559 113.121 10.8918 108.616 10.8918C106.451 10.8918 104.999 12.0784 104.406 13.2043H104.345V11.2468Z" fill="#fff"/>
</svg>
